<?xml version="1.0" encoding="utf-8"?>
<!-- Generator: Adobe Illustrator 16.0.0, SVG Export Plug-In . SVG Version: 6.00 Build 0)  -->
<!DOCTYPE svg PUBLIC "-//W3C//DTD SVG 1.1//EN" "http://www.w3.org/Graphics/SVG/1.1/DTD/svg11.dtd">
<svg version="1.1" id="Layer_1" xmlns="http://www.w3.org/2000/svg" xmlns:xlink="http://www.w3.org/1999/xlink" x="0px" y="0px"
	 width="480px" height="480px" viewBox="0 0 480 480" enable-background="new 0 0 480 480" xml:space="preserve">
<g>
	<g>
		<g>
			<g>
				<path fill="#FFFFFF" d="M289.714,356.905c30.096-7.621,41.694-8.387,62.299-34.61c38.07-48.453,34.26-116.414,8.078-156.901
					c-29.646-45.836-83.715-53.321-137.074-53.092c-37.053,0.164-65.915,14.595-90.201,43.863
					c-22.026,26.544-42.493,73.617-33.457,108.447c8.184,31.554,18.141,50.102,42.687,68.067
					c22.694,16.609,59.235,30.73,87.677,31.148C229.723,363.828,279.972,359.375,289.714,356.905z"/>
				<path d="M229.723,366.219c-0.009,0-0.023,0-0.033,0c-27.121-0.399-64.575-13.693-89.057-31.61
					c-26.551-19.435-35.806-39.383-43.59-69.396c-9.041-34.853,10.226-82.008,33.933-110.574
					c25.183-30.35,54.426-44.562,92.032-44.727l2.33-0.005c47.354,0,105.697,6.159,136.761,54.19
					c25.661,39.684,31.508,109.131-8.206,159.676c-19.255,24.508-31.503,27.524-55.901,33.539c-2.426,0.598-4.982,1.228-7.69,1.912
					c-9.813,2.486-58.307,6.804-60.366,6.985C229.865,366.216,229.792,366.219,229.723,366.219z M225.338,114.688l-2.312,0.004
					c-36.081,0.159-64.162,13.822-88.371,43c-22.367,26.955-41.528,73.377-32.985,106.32c8.657,33.366,19.201,50.205,41.788,66.739
					c23.73,17.366,59.952,30.259,86.178,30.684c2.778-0.247,50.274-4.511,59.492-6.846c2.718-0.688,5.284-1.321,7.719-1.921
					c24.064-5.929,35.048-8.637,53.286-31.849c38.344-48.802,32.713-115.832,7.95-154.127
					C328.445,120.866,274.347,114.688,225.338,114.688z"/>
			</g>
			<g>
				<path fill="#FFFFFF" d="M153.582,100.792c0,0-14.999,10.38-21.919,19.612c-6.922,9.229-20.77,21.919-24.23,19.612
					c-3.46-2.309-38.071-68.067-27.686-71.527c10.383-3.46,68.067,21.918,72.681,25.379
					C157.042,97.329,153.582,100.792,153.582,100.792z"/>
				<path d="M108.469,142.682c-0.892,0-1.688-0.229-2.363-0.677c-3.663-2.444-32.491-56.73-30.583-70.962
					c0.446-3.339,2.365-4.455,3.467-4.824c0.901-0.299,1.975-0.443,3.282-0.443c15.368,0,66.335,22.241,71.588,26.182
					c2.583,1.933,3.241,4.011,3.341,5.417c0.206,2.881-1.711,4.889-1.931,5.108c-0.103,0.1-0.21,0.191-0.33,0.275
					c-0.147,0.1-14.763,10.273-21.37,19.08C127.964,129.317,114.778,142.682,108.469,142.682z M108.455,137.9l0.014,2.391V137.9
					C108.464,137.9,108.458,137.9,108.455,137.9z M82.273,70.556c-1.016,0-1.545,0.126-1.77,0.201
					c0.009,0.005-3.222,3.904,10.527,33.938c7.492,16.362,15.58,30.683,17.648,33.191c3.25-0.411,14.184-9.736,21.069-18.919
					c6.661-8.879,20.145-18.51,22.222-19.969c0.161-0.214,0.512-0.751,0.462-1.31c-0.065-0.735-0.819-1.443-1.438-1.908
					C147.105,92.862,96.623,70.556,82.273,70.556z"/>
			</g>
			<g>
				<path fill="#FFFFFF" d="M188.313,90.724c-1.908-4.179,20.735-76.828,33.335-75.306c12.599,1.522,42.353,60.176,40.377,66.912
					c-1.976,6.731-27.798,3.483-40.952,6.542C207.925,91.931,190.221,94.903,188.313,90.724z"/>
				<path d="M195.378,95.179c-3.288,0-7.824-0.36-9.241-3.462c-2.4-5.263,13.359-52.646,24.293-69.658
					c4.237-6.593,7.891-9.456,11.503-9.015c1.786,0.217,7.219,0.871,19.304,19.213c10.334,15.685,24.903,44.545,23.082,50.749
					c-1.702,5.799-11.744,6.154-24.457,6.6c-6.596,0.231-13.417,0.474-18.246,1.595C215.231,92.685,203.331,95.179,195.378,95.179z
					 M190.578,89.762c0.317,0.145,1.508,0.635,4.8,0.635c7.476,0,18.967-2.414,25.155-3.852c5.281-1.229,12.336-1.476,19.161-1.719
					c7.222-0.252,19.306-0.679,20.037-3.17c0.693-4.109-12.946-34.396-26.896-53.083c-7.156-9.582-10.591-10.675-11.476-10.782
					c-0.406,0.044-1.629,0.191-3.806,2.652C205.609,33.952,190.522,83.278,190.578,89.762z"/>
			</g>
			<g>
				<path fill="#FFFFFF" d="M368.164,341.906c4.438,0.218,34.321,68.815,23.367,75.22c-10.955,6.404-76.991-25.312-79.489-31.87
					c-2.499-6.558,27.134-11.531,35.764-21.921C356.43,352.948,363.727,341.692,368.164,341.906z"/>
				<path d="M387.27,420.364c-17.933,0-74.527-26.554-77.462-34.256c-2.113-5.54,5.733-8.765,15.668-12.846
					c7.813-3.213,16.668-6.851,20.49-11.454c2.117-2.55,4.151-5.15,6.084-7.621c7.336-9.372,11.692-14.674,15.988-14.674
					c0.038,0,0.203,0.005,0.243,0.007c6.04,0.294,21.644,39.413,26.002,57.211c3.152,12.862,2.659,20-1.545,22.458
					C391.384,419.981,389.596,420.364,387.27,420.364z M367.59,344.382c-2.456,0.845-7.803,7.677-11.771,12.752
					c-1.961,2.506-4.025,5.146-6.173,7.729c-4.586,5.52-14.022,9.399-22.354,12.822c-4.987,2.05-12.528,5.148-13.014,6.846
					c2.864,4.973,54.857,31.052,72.991,31.052c1.88,0,2.721-0.326,3.055-0.521c0.618-0.361,1.06-1.711,1.179-3.611
					C392.5,395.48,372.47,349.663,367.59,344.382z"/>
			</g>
			<g>
				<path fill="#FFFFFF" d="M278.699,380.197c0,0-20.446,86.789-32.825,83.999c-12.378-2.79-42.455-79.092-35.747-81.156
					c7.709-2.372,13.047-0.593,34.986-1.778C258.599,380.533,278.699,380.197,278.699,380.197z"/>
				<path d="M246.468,466.653c-0.376,0-0.752-0.042-1.116-0.124c-12.944-2.916-37.991-65.285-38.568-80.29
					c-0.119-3.063,0.771-4.908,2.641-5.482c4.342-1.34,8.069-1.442,12.86-1.442l5.715,0.019c3.964,0,9.477-0.054,16.983-0.46
					c13.378-0.722,33.476-1.064,33.677-1.067c0.787,0.047,1.438,0.315,1.9,0.89s0.635,1.331,0.467,2.048
					c-0.051,0.21-5.045,21.335-11.498,42.189c-11.992,38.747-18.62,43.718-23.056,43.721H246.468z M211.542,385.118
					c-0.803,5.571,9.409,36.235,22.023,59.635c8.303,15.404,12.15,16.957,12.837,17.111l0.065,0.007
					c6.14-0.005,19.838-40.41,29.188-79.228c-6.154,0.126-20.251,0.455-30.414,1.004c-7.624,0.411-13.217,0.467-17.243,0.467
					l-5.715-0.019C217.486,384.096,214.661,384.25,211.542,385.118z"/>
			</g>
			<g>
				<path fill="#FFFFFF" d="M302.588,92.491c0,0,64.335-49.396,70.19-35.542c5.855,13.859-2.741,79.657-14.682,74.138
					c-11.939-5.522-42.826-23.593-49.459-25.878C302.002,102.921,302.588,92.491,302.588,92.491z"/>
				<path d="M359.517,133.805c-0.819,0-1.635-0.182-2.421-0.546c-5.625-2.601-15.337-7.917-24.728-13.056
					c-10.399-5.692-21.15-11.576-24.511-12.734c-8.248-2.844-7.686-14.611-7.658-15.11c0.043-0.696,0.381-1.34,0.935-1.763
					c2.045-1.571,50.313-38.489,67.059-38.489c4.469,0,6.171,2.452,6.79,3.913c5.047,11.949,0.359,59.293-8.976,73.37
					C364.064,132.32,361.882,133.805,359.517,133.805z M304.981,93.67c0.084,2.358,0.682,7.985,4.434,9.278
					c3.742,1.289,14.188,7.004,25.246,13.058c9.324,5.102,18.965,10.378,24.439,12.909c0.157,0.075,0.295,0.107,0.416,0.107
					c0.48,0,1.394-0.598,2.508-2.276c8.325-12.557,13.027-58.273,8.555-68.866c-0.127-0.296-0.421-0.992-2.387-0.992
					C355.907,56.889,319.298,82.771,304.981,93.67z"/>
			</g>
			<g>
				<path fill="#FFFFFF" d="M69.362,223.079c0,0-71.388-47.82-61.145-58.838c10.245-11.015,86.673-16.614,86.526-3.46
					c-0.149,13.152-14.473,46.083-13.845,53.069C81.528,220.838,69.362,223.079,69.362,223.079z"/>
				<path d="M69.362,225.47c-0.472,0-0.934-0.138-1.331-0.404c-6.271-4.203-61.327-41.5-63.155-57.215
					c-0.301-2.592,0.698-4.277,1.59-5.237c7.2-7.742,39.24-11.865,59.604-11.865c10.735,0,24.522,0.997,29.217,5.746
					c1.226,1.237,1.863,2.731,1.847,4.314c-0.086,7.527-4.431,20.742-8.267,32.402c-2.865,8.718-5.83,17.732-5.587,20.424
					c0.651,7.229-8.169,10.815-13.483,11.795C69.651,225.458,69.507,225.47,69.362,225.47z M66.07,155.53
					c-23.894,0-51.159,5.027-56.102,10.341c-0.224,0.238-0.438,0.598-0.343,1.426c1.171,10.061,37.195,37.718,60.223,53.23
					c3.086-0.761,8.986-2.949,8.669-6.463c-0.315-3.5,2.001-10.772,5.809-22.348c3.727-11.331,7.95-24.174,8.027-30.963
					c0.002-0.126,0.004-0.423-0.465-0.897C89.819,157.764,81.951,155.53,66.07,155.53z"/>
			</g>
			<g>
				<path fill="#FFFFFF" d="M385.288,160.01c8.255-4.997,71.266-8.356,72.862,4.23c1.598,12.589-44.977,59.679-51.985,59.406
					c-7.014-0.271-4.907-20.308-11.083-32.318C388.906,179.321,377.029,165.011,385.288,160.01z"/>
				<path d="M406.226,226.037c-0.032,0-0.124,0-0.154-0.002c-5.897-0.227-7.125-7.675-8.545-16.294
					c-0.957-5.813-2.045-12.405-4.571-17.317c-1.378-2.683-3.094-5.557-4.754-8.337c-6.171-10.338-12.552-21.032-4.153-26.122
					c4.994-3.021,23.695-4.828,38.89-4.828c16.521,0,36.451,1.875,37.586,10.805c0.919,7.247-9.941,21.312-19.213,31.832
					C432.608,205.65,412.586,226.037,406.226,226.037z M422.938,157.918c-17.431,0-33.181,2.181-36.412,4.137
					c-4.025,2.438-0.141,9.654,5.783,19.582c1.697,2.844,3.453,5.783,4.9,8.599c2.869,5.583,4.021,12.566,5.033,18.728
					c0.893,5.4,1.999,12.115,3.97,12.292c4.021-0.579,24.79-19.388,39.135-37.8c10.24-13.14,10.572-17.8,10.432-18.912
					C455.442,161.88,446.416,157.918,422.938,157.918z"/>
			</g>
			<g>
				<path fill="#FFFFFF" d="M96.109,322.15c-7.992,5.411-91.424,6.868-93.66-5.622c-2.234-12.491,62.566-56.791,69.58-56.873
					c7.018-0.086,5.935,20.035,12.708,31.713C91.514,303.047,104.103,316.738,96.109,322.15z"/>
				<path d="M55.11,328.535c-19.771,0-53.21-1.506-55.015-11.587c-0.52-2.907,1.073-6.479,5.013-11.244
					C19.786,287.96,64.893,257.347,72,257.265c5.919,0,7.514,7.343,9.363,15.844c1.251,5.758,2.671,12.283,5.442,17.06
					c1.513,2.606,3.371,5.389,5.169,8.083c6.689,10.017,13.607,20.373,5.475,25.879C92.313,327.608,68.419,328.535,55.11,328.535z
					 M72.075,262.046c-5.271,0.465-50.986,30.579-64.29,47.973c-3.062,4.002-3.058,5.671-2.983,6.087
					c0.569,3.178,16.552,7.648,50.308,7.648c21.226,0,37.111-1.86,39.656-3.584c3.896-2.638-0.348-9.649-6.769-19.264
					c-1.84-2.753-3.74-5.602-5.328-8.338c-3.149-5.428-4.653-12.342-5.979-18.444C75.582,269.027,74.064,262.046,72.075,262.046z"/>
			</g>
			<g>
				<path fill="#FFFFFF" d="M406.931,257.521c0,0,70.865,37.858,59.296,47.468c-11.573,9.61-82.036,29.853-80.206,16.824
					c1.835-13.025,10.213-47.815,10.483-54.827C396.774,259.973,406.931,257.521,406.931,257.521z"/>
				<path d="M394.706,328.449c-5.062,0-8.199-0.901-9.881-2.83c-0.985-1.137-1.392-2.568-1.172-4.137
					c0.864-6.136,3.147-16.974,5.356-27.455c2.441-11.594,4.968-23.583,5.105-27.132c0.339-8.723,11.77-11.58,12.255-11.697
					c0.57-0.14,1.17-0.061,1.687,0.215c10.083,5.384,60.446,32.93,61.806,46.289c0.205,2.036-0.523,3.811-2.106,5.127
					C458.56,314.464,414.08,328.449,394.706,328.449z M406.669,260.095c-2.119,0.7-7.618,2.909-7.776,6.983
					c-0.152,3.957-2.608,15.605-5.204,27.935c-2.19,10.404-4.457,21.16-5.3,27.138c-0.033,0.237,0.009,0.284,0.046,0.331
					c0.107,0.121,1.177,1.187,6.271,1.187c18.216,0,61.486-13.453,69.994-20.519c0.35-0.289,0.448-0.522,0.403-0.964
					C464.264,293.916,429.19,272.2,406.669,260.095z"/>
			</g>
			<g>
				<path fill="#FFFFFF" d="M173.193,375.364c1.947,4.118-57.89,63.347-65.733,50.515c-7.84-12.842-9.189-85.354,3.432-81.663
					c12.626,3.691,31.625,16.848,38.073,19.609C157.042,367.288,171.246,371.248,173.193,375.364z"/>
				<path d="M111.128,430.086c-3.222,0-4.882-1.611-5.708-2.961c-7.095-11.617-9.213-67.087-1.247-81.291
					c1.924-3.426,4.221-4.146,5.809-4.146c0.523,0,1.056,0.079,1.583,0.233c8.562,2.503,19.481,8.933,28.253,14.102
					c4.298,2.528,8.006,4.714,10.088,5.608c2.153,0.92,4.758,1.882,7.514,2.899c10.021,3.694,16.227,6.199,17.936,9.811
					c0.719,1.525-0.07,3.136-1.027,4.651C167.487,389.79,126.288,430.086,111.128,430.086z M109.982,346.469
					c-0.413,0-1.055,0.67-1.637,1.704c-7.095,12.65-5.078,66.254,1.156,76.459c0.145,0.233,0.411,0.673,1.627,0.673
					c12.62,0,55.7-41.303,59.537-49.427c-1.987-2.1-9.972-5.046-14.898-6.862c-2.815-1.039-5.477-2.02-7.742-2.991
					c-2.363-1.013-6.012-3.161-10.633-5.883c-8.095-4.768-19.178-11.296-27.169-13.631
					C110.131,346.482,110.052,346.469,109.982,346.469z"/>
			</g>
		</g>
		<g>
			<g>
				<path fill="#FFF8A1" d="M300.097,359.212c30.096-7.621,41.694-8.384,62.301-34.608c38.071-48.453,34.258-116.413,8.074-156.9
					c-29.643-45.838-83.713-53.323-137.072-53.092c-37.053,0.161-65.917,14.595-90.204,43.863
					c-22.023,26.544-42.49,73.615-33.457,108.445c8.186,31.557,18.144,50.102,42.689,68.067
					c22.694,16.609,59.237,30.73,87.679,31.15C240.107,366.137,290.356,361.682,300.097,359.212z"/>
			</g>
			<g>
				<path fill="#FFF8A1" d="M163.964,103.098c0,0-14.996,10.383-21.918,19.612c-6.922,9.232-20.768,21.919-24.228,19.612
					c-3.46-2.307-38.07-68.065-27.688-71.528c10.382-3.46,68.065,21.918,72.683,25.381
					C167.427,99.638,163.964,103.098,163.964,103.098z"/>
			</g>
			<g>
				<path fill="#FFF8A1" d="M198.696,93.031c0,0,20.735-76.828,33.333-75.306c12.601,1.522,42.354,60.179,40.38,66.915
					c-1.976,6.731-27.8,3.483-40.95,6.542C218.306,94.24,198.696,93.031,198.696,93.031z"/>
			</g>
			<g>
				<path fill="#FFF8A1" d="M377.751,338.647c0,0,34.284,68.096,23.329,74.5s-76.954-24.595-79.452-31.153
					c-2.498-6.558,27.137-11.531,35.764-21.918C366.017,349.687,377.751,338.647,377.751,338.647z"/>
			</g>
			<g>
				<path fill="#FFF8A1" d="M286.027,383.634c0,0-17.392,85.657-29.771,82.87c-12.376-2.788-43.44-73.405-40.795-79.905
					c2.647-6.5,27.442-3.853,40.837-5.566C271.981,379.027,269.077,380.849,286.027,383.634z"/>
			</g>
			<g>
				<path fill="#FFF8A1" d="M312.971,94.8c0,0,64.334-49.399,70.192-35.542c5.855,13.857-2.741,79.655-14.684,74.136
					c-11.939-5.52-42.826-23.59-49.459-25.878C312.385,105.23,312.971,94.8,312.971,94.8z"/>
			</g>
			<g>
				<path fill="#FFF8A1" d="M79.745,225.388c0,0-71.386-47.82-61.145-58.838c10.245-11.015,86.676-16.616,86.526-3.462
					c-0.149,13.154-14.476,46.083-13.845,53.069C91.911,223.147,79.745,225.388,79.745,225.388z"/>
			</g>
			<g>
				<path fill="#FFF8A1" d="M395.668,162.319c8.261-4.999,71.267-8.358,72.868,4.23c1.597,12.589-44.978,59.679-51.988,59.403
					c-7.014-0.271-4.908-20.308-11.083-32.315C399.287,181.63,387.412,167.318,395.668,162.319z"/>
			</g>
			<g>
				<path fill="#FFF8A1" d="M106.492,324.457c-7.992,5.412-91.425,6.868-93.66-5.622c-2.233-12.491,62.568-56.791,69.582-56.873
					c7.016-0.084,5.931,20.035,12.706,31.713C101.899,305.356,114.486,319.045,106.492,324.457z"/>
			</g>
			<g>
				<path fill="#FFF8A1" d="M417.313,259.83c0,0,70.864,37.856,59.296,47.466c-11.571,9.612-82.039,29.853-80.203,16.827
					c1.835-13.025,10.209-47.816,10.482-54.827C407.16,262.282,417.313,259.83,417.313,259.83z"/>
			</g>
			<g>
				<path fill="#FFF8A1" d="M183.576,377.673c0,0-64.295,59.45-72.135,46.613c-7.843-12.836-2.79-81.452,9.836-77.764
					c12.626,3.693,31.622,16.85,38.07,19.612C167.424,369.597,183.576,377.673,183.576,377.673z"/>
			</g>
		</g>
		<g>
			<path d="M211.561,242.205c-2.398,0-4.719-0.67-6.815-2.006c-4.744-3.014-8.055-9.282-8.237-15.6
				c-0.196-6.701,1.095-11.043,2.82-13.859c1.588-5.295,4.394-9.778,8.302-11.615c2.643-1.245,8.001-2.272,14.135,4.845
				c4.273,4.954,4.852,17.053,2.937,25.425c-1.382,6.057-3.964,10.058-7.461,11.58C215.348,241.797,213.431,242.205,211.561,242.205
				z M210.86,220.056c0.002,0.03-0.635,0.152-1.842,1.387c-0.962,0.985-1.025,3.175-0.168,5.715
				c0.537,1.597,1.277,2.914,2.008,3.913c0.019-0.028,0.037-0.054,0.056-0.079c1.245-1.658,1.732-5.428,1.088-8.4
				C211.614,220.821,211.017,220.154,210.86,220.056z M204.701,213.502c-0.395,1.513-0.682,3.14-0.833,4.831
				c0.261-0.378,0.551-0.735,0.875-1.064c3.616-3.703,6.628-3.474,8.449-2.702c-0.282-0.395-0.583-0.754-0.892-1.074
				c-1.756-1.81-3.88-2.499-5.557-1.791C206.041,211.999,205.333,212.584,204.701,213.502z M208.831,205.468
				c2.741,0.192,5.492,1.522,7.761,3.867c0.929,0.957,1.793,2.101,2.531,3.418c-0.448-2.232-1.104-3.979-1.881-4.879
				c-2.713-3.147-5.088-4.273-7.065-3.339C209.718,204.749,209.27,205.062,208.831,205.468z"/>
		</g>
		<g>
			<g>
				<path d="M241.865,296.355c-18.325,0-32.495-4.546-42.177-13.544c-11.926-11.081-12.431-24.77-12.444-25.346
					c-0.038-1.319,1.004-2.422,2.323-2.454c1.292-0.047,2.417,0.999,2.454,2.316c0.007,0.163,0.542,12.388,10.994,22.049
					c9.647,8.914,24.471,12.981,44.078,12.073c53.644-2.475,58.668-33.214,58.715-33.524c0.187-1.308,1.385-2.223,2.704-2.027
					c1.308,0.188,2.216,1.398,2.026,2.706c-0.203,1.427-5.671,34.968-63.226,37.623
					C245.459,296.313,243.643,296.355,241.865,296.355z"/>
			</g>
			<g>
				<circle cx="189.633" cy="256.534" r="4.868"/>
			</g>
			<g>
				<circle cx="308.173" cy="256.534" r="4.868"/>
			</g>
		</g>
		<g>
			<path fill="#F6978F" d="M138.961,286.983c-7.9,0-15.138-4.111-20.065-11.475c-4.73-7.077-4.058-15.184,1.854-22.243
				c2.101-2.508,4.884-4.824,8.062-6.758c0.815-1.414,1.875-2.574,3.149-3.395c2.102-1.354,4.59-1.689,7.119-1.027
				c6.143-1.672,12.596-1.765,18.022,0.614c12.563,5.499,13.95,15.725,11.319,22.811c-1.676,4.516-5.104,8.569-9.661,11.254
				c-4.312,5.778-10.982,9.619-18.062,10.153C140.115,286.963,139.536,286.983,138.961,286.983z M125.403,266.62
				c0.273,0.044,0.548,0.112,0.819,0.21c0.317,0.112,0.635,0.205,0.948,0.28c0-0.957,0.128-1.749,0.245-2.265
				c0.189-0.846,0.486-1.677,0.871-2.493c-0.278-0.775-0.514-1.551-0.705-2.321C125.583,262.665,125.191,264.893,125.403,266.62z
				 M149.421,260.562c-0.304,1.31-0.764,2.631-1.38,3.948c-0.254,0.537-0.532,1.071-0.833,1.597
				c1.375-0.299,2.592-0.999,3.472-1.779c1.282-1.135,1.651-2.251,1.588-2.526C152.188,261.638,151.471,260.991,149.421,260.562z
				 M136.544,253.15c-0.035,0.27-0.063,0.563-0.077,0.874c0.761-0.446,1.55-0.854,2.354-1.22c-0.143-0.146-0.297-0.291-0.465-0.434
				C137.747,252.611,137.14,252.873,136.544,253.15z M148.746,250.812c0.371,0.025,0.74,0.065,1.104,0.119
				c2.087,0.304,3.81,0.81,5.229,1.438c-0.558-0.322-1.163-0.624-1.812-0.908c-1.366-0.598-2.956-0.918-4.672-0.998
				C148.648,250.58,148.697,250.695,148.746,250.812z"/>
		</g>
		<g>
			<path fill="#F6978F" d="M347.124,285.653c-5.674,0-11.539-1.294-16.139-3.547c-7.952-3.896-12.117-10.434-11.424-17.934
				c0.777-8.4,6.797-15.181,16.101-18.144c9.024-2.879,21.506-1.891,27.889,5.557c2.237,2.608,5.184,7.843,2.886,15.837
				c1.541,4.997,0.413,9.699-3.196,13.072C359.407,284.079,353.381,285.653,347.124,285.653z M340.367,264.206
				c-0.636,0.71-1.042,1.513-0.839,2.316c0.556,2.181,4.354,4.959,8.604,5.411c2.541,0.267,5.968-0.187,7.824-3.917
				c0.386-0.775,0.71-1.522,0.969-2.237c-2.815,1.195-6.607,2.004-11.402,2.44C343,268.46,340.755,266.672,340.367,264.206z
				 M333.26,257.809c-2.09,1.593-3.866,3.908-4.175,7.242c-0.175,1.892,0.355,3.599,1.579,5.104
				c-0.159-0.418-0.295-0.846-0.402-1.275C329.748,266.87,329.232,262.291,333.26,257.809z"/>
		</g>
		<g>
			<g>
				<path d="M288.552,250.148c-0.488,0-0.983-0.149-1.408-0.46l-0.756-0.552c-7.453-5.453-12.855-9.404-22.092-8.881
					c-0.848,0.065-1.653-0.355-2.122-1.06c-0.47-0.705-0.53-1.606-0.161-2.367c4.828-9.962,19.962-14.896,29.271-12.346
					c1.272,0.35,2.021,1.667,1.674,2.939c-0.35,1.272-1.662,2.024-2.939,1.674c-6.203-1.704-16.14,1.016-21.332,6.465
					c8.307,0.778,14.041,4.971,20.526,9.715l0.752,0.551c1.064,0.78,1.298,2.274,0.521,3.342
					C290.016,249.81,289.289,250.148,288.552,250.148z"/>
			</g>
			<g>
				<path d="M268.807,238.841c-2.494,0-3.565-0.322-4.326-1.158c-0.493-0.542-0.771-1.478-0.651-2.199
					c0.217-1.303,1.434-2.183,2.75-1.966c0.435,0.073,0.822,0.257,1.135,0.519c1.41,0.117,4.949-0.126,7.158-0.28
					c2.029-0.14,3.955-0.303,5.268-0.271c1.139,0.002,2.694,0.098,4.314,0.196c2.013,0.126,5.318,0.332,6.364,0.145
					c0.911-0.546,2.113-0.435,2.904,0.343c0.943,0.924,0.958,2.439,0.033,3.38c-1.279,1.303-3.386,1.289-9.596,0.904
					c-1.518-0.093-2.966-0.185-4.032-0.187c-0.012,0-0.026,0-0.037,0c-1.151,0-2.968,0.126-4.887,0.259
					C272.374,238.722,270.329,238.841,268.807,238.841z"/>
			</g>
		</g>
	</g>
</g>
</svg>
